# xmcd
#
# Track frame offsets:
#	150
#	15941
#	29607
#	41809
#	58374
#	76115
#	89142
#	100704
#	115976
#	129132
#	142341
#	153119
#	166589
#	179391
#	191568
#	203666
#	216903
#	229746
#
# Disc length: 3237 seconds
#
# Revision: 1
# Processed by: cddbd v1.5.2PL0 Copyright (c) Steve Scherf et al.
# Submitted via: audiograbber 1.83.01
#
DISCID=f10ca312
DTITLE=Fred Gross - Blues Instrumental Compilation
DYEAR=2006
DGENRE=Instrumental
TTITLE0=New Direction
TTITLE1=Wide Awake
TTITLE2=Cloud 9
TTITLE3=In The Morning
TTITLE4=Misty Morning
TTITLE5=Liberty Jam
TTITLE6=Sunrise
TTITLE7=Hot Summer Night
TTITLE8=Moondusk
TTITLE9=The High Road
TTITLE10=Boogie 'n' Blues
TTITLE11=Chill Grill
TTITLE12=The Good Days
TTITLE13=From Here To There
TTITLE14=Silhouette
TTITLE15=Along The Way
TTITLE16=Smooth 'n' Easy
TTITLE17=Jazz and Mr. Blue
EXTD=As heard on the Weather Channel
EXTT0=
EXTT1=
EXTT2=
EXTT3=
EXTT4=
EXTT5=
EXTT6=
EXTT7=
EXTT8=
EXTT9=
EXTT10=
EXTT11=
EXTT12=
EXTT13=
EXTT14=
EXTT15=
EXTT16=
EXTT17=
PLAYORDER=
